<svg xmlns="http://www.w3.org/2000/svg" viewBox="0 0 84.88 53.49"><defs><style>.cls-1{fill:none;stroke:#040000;stroke-miterlimit:10;}.cls-2{fill:#040000;}</style></defs><title>advIcon3_1</title><g id="Layer_2" data-name="Layer 2"><g id="图层_1" data-name="图层 1"><ellipse class="cls-1" cx="42.44" cy="26.74" rx="41.94" ry="26.24"/><path class="cls-2" d="M42.88,45.76c-3.46,2.07-6.87,2.82-9.64,2.39V44.41a23.46,23.46,0,0,0,5.89-3.69c5.29-4.26,10-10.1,10.63-13s-3.22-1.89-8.52,2.37a49.71,49.71,0,0,0-4.35,4v-8.9c.71-.49,1.46-1.05,2.24-1.68,5.29-4.25,10-10.09,10.63-13s-3.22-1.89-8.52,2.36a48.34,48.34,0,0,0-8,8.19V11A22.78,22.78,0,0,1,37.5,7.73c7.06-4.22,14-3,15.46,2.75,1,3.79-.66,8.61-3.94,12.66A6.57,6.57,0,0,1,53,27.75C54.45,33.49,49.93,41.55,42.88,45.76Z"/></g></g></svg>