<svg xmlns="http://www.w3.org/2000/svg" viewBox="0 0 84.88 53.49"><defs><style>.cls-1{fill:none;stroke:#040000;stroke-miterlimit:10;}.cls-2{fill:#040000;}</style></defs><title>advIcon6</title><g id="Layer_2" data-name="Layer 2"><g id="图层_1" data-name="图层 1"><ellipse class="cls-1" cx="42.44" cy="26.74" rx="41.94" ry="26.24"/><path class="cls-2" d="M64.39,18.11c-2-7.74-11.35-9.4-20.87-3.72a31.65,31.65,0,0,0-9.89,9.38V10.48H29.47V36.57h.09a11.54,11.54,0,0,0,.34,2.13c2,7.74,11.35,9.41,20.87,3.72S66.39,25.85,64.39,18.11ZM60.07,18c-.79,4-7.22,11.86-14.35,17.6S33.44,42.77,34.23,38.8,41.44,27,48.58,21.21,60.85,14,60.07,18Z"/></g></g></svg>